<?xml version="1.0" encoding="UTF-8" standalone="no" ?>
<!DOCTYPE svg PUBLIC "-//W3C//DTD SVG 1.1//EN" "http://www.w3.org/Graphics/SVG/1.1/DTD/svg11.dtd">
<svg xmlns="http://www.w3.org/2000/svg" xmlns:xlink="http://www.w3.org/1999/xlink" version="1.1" width="1080" height="1080" viewBox="0 0 1080 1080" xml:space="preserve">
<desc>Created with Fabric.js 5.2.4</desc>
<defs>
</defs>
<g transform="matrix(1 0 0 1 540 540)" id="8f0dc822-159e-4d40-b601-b948dc5f027c"  >
<rect style="stroke: none; stroke-width: 1; stroke-dasharray: none; stroke-linecap: butt; stroke-dashoffset: 0; stroke-linejoin: miter; stroke-miterlimit: 4; fill: rgb(200,0,146); fill-rule: nonzero; opacity: 1;" vector-effect="non-scaling-stroke"  x="-540" y="-540" rx="0" ry="0" width="1080" height="1080" />
</g>
<g transform="matrix(1 0 0 1 540 540)" id="3c431418-c04d-4715-a90d-d8ba41247750"  >
</g>
<g transform="matrix(8.15 0 0 8.15 540 540)"  >
<g style="" vector-effect="non-scaling-stroke"   >
		<g transform="matrix(0.13 0 0 -0.13 -1.15 -36.92)"  >
<path style="stroke: none; stroke-width: 1; stroke-dasharray: none; stroke-linecap: butt; stroke-dashoffset: 0; stroke-linejoin: miter; stroke-miterlimit: 4; fill: rgb(255,255,255); fill-rule: nonzero; opacity: 1;" vector-effect="non-scaling-stroke"  transform=" translate(-505, -675.35)" d="M 188 738 C 162 729 160 724 160 673 C 160 624 162 619 178 625 C 221 643 286 642 338 621 C 404 595 435 595 507 620 C 539 631 579 640 597 640 C 615 640 652 631 680 620 C 735 598 785 595 824 610 C 848 619 850 625 850 675 C 850 729 850 729 824 720 C 785 705 740 708 677 730 C 646 741 607 750 591 750 C 574 750 538 741 510 730 C 482 719 445 710 427 710 C 409 710 369 719 337 730 C 276 752 231 754 188 738 z" stroke-linecap="round" />
</g>
		<g transform="matrix(0.13 0 0 -0.13 -1.15 -12.35)"  >
<path style="stroke: none; stroke-width: 1; stroke-dasharray: none; stroke-linecap: butt; stroke-dashoffset: 0; stroke-linejoin: miter; stroke-miterlimit: 4; fill: rgb(255,255,255); fill-rule: nonzero; opacity: 1;" vector-effect="non-scaling-stroke"  transform=" translate(-505, -491.19)" d="M 220 560 C 166 551 160 543 160 488 C 160 439 161 438 186 444 C 252 461 269 460 325 441 C 399 415 450 415 523 440 C 554 451 586 460 595 460 C 604 460 636 451 667 440 C 724 420 785 415 828 426 C 847 432 850 439 850 485 L 850 538 L 790 533 C 747 529 718 532 685 545 C 629 566 557 566 508 546 C 464 527 393 525 353 541 C 308 559 258 566 220 560 z" stroke-linecap="round" />
</g>
		<g transform="matrix(0.13 0 0 -0.13 -1.15 12.41)"  >
<path style="stroke: none; stroke-width: 1; stroke-dasharray: none; stroke-linecap: butt; stroke-dashoffset: 0; stroke-linejoin: miter; stroke-miterlimit: 4; fill: rgb(255,255,255); fill-rule: nonzero; opacity: 1;" vector-effect="non-scaling-stroke"  transform=" translate(-505, -305.49)" d="M 183 370 C 163 362 160 353 160 306 L 160 251 L 190 261 C 227 274 297 268 372 245 C 428 227 430 227 495 249 C 569 274 619 273 710 245 C 756 231 773 230 808 239 L 850 251 L 850 306 C 850 356 848 361 833 355 C 789 338 743 339 690 359 C 621 385 570 386 497 360 C 427 335 413 335 348 360 C 293 381 221 385 183 370 z" stroke-linecap="round" />
</g>
		<g transform="matrix(0.13 0 0 -0.13 -1.15 36.5)"  >
<path style="stroke: none; stroke-width: 1; stroke-dasharray: none; stroke-linecap: butt; stroke-dashoffset: 0; stroke-linejoin: miter; stroke-miterlimit: 4; fill: rgb(255,255,255); fill-rule: nonzero; opacity: 1;" vector-effect="non-scaling-stroke"  transform=" translate(-505, -124.72)" d="M 193 189 C 161 180 160 178 160 124 C 160 74 162 69 178 75 C 220 92 277 91 334 71 C 408 45 441 45 513 70 C 584 95 606 95 677 70 C 740 48 785 45 824 60 C 848 69 850 75 850 125 C 850 179 850 179 824 170 C 785 155 740 158 677 180 C 606 205 584 205 513 180 C 441 155 409 155 337 180 C 276 202 243 204 193 189 z" stroke-linecap="round" />
</g>
</g>
</g>
</svg>